<svg width="57" height="57" viewBox="0 0 57 57" fill="none" xmlns="http://www.w3.org/2000/svg">
<g clip-path="url(#clip0_52_4860)">
<path fill-rule="evenodd" clip-rule="evenodd" d="M43.4576 36.4171C39.6793 36.4171 36.6163 39.4801 36.6163 43.2584C36.6163 47.0368 39.6793 50.0998 43.4576 50.0998C47.236 50.0998 50.299 47.0368 50.299 43.2584C50.299 39.4801 47.236 36.4171 43.4576 36.4171ZM30.5352 43.2584C30.5352 36.1215 36.3208 30.3359 43.4576 30.3359C50.5945 30.3359 56.3801 36.1215 56.3801 43.2584C56.3801 50.3953 50.5945 56.1809 43.4576 56.1809C36.3208 56.1809 30.5352 50.3953 30.5352 43.2584Z" fill="#000080"/>
<path fill-rule="evenodd" clip-rule="evenodd" d="M32.1191 0.488281H38.2003V18.7318H55.1744V24.813H32.1191V0.488281Z" fill="#000080"/>
<path fill-rule="evenodd" clip-rule="evenodd" d="M12.1895 11.4072L22.1398 1.45312L26.4406 5.75234L16.4903 15.7065L12.1895 11.4072Z" fill="#000080"/>
<path fill-rule="evenodd" clip-rule="evenodd" d="M0.609375 12.4322C0.609375 5.53393 6.25108 0 13.1442 0V6.08117C9.54728 6.08117 6.69055 8.95447 6.69055 12.4322C6.69055 15.9091 9.55029 18.7832 13.1442 18.7832H25.679V24.8644H13.1442C6.25568 24.8644 0.609375 19.3313 0.609375 12.4322Z" fill="#000080"/>
<path fill-rule="evenodd" clip-rule="evenodd" d="M19.5966 44.9621V31.2148H25.6778V44.9621C25.6778 51.2168 20.5273 56.1933 14.2946 56.1933C8.06184 56.1933 2.91136 51.2168 2.91136 44.9621V37.2998H0V31.2186H8.99254V44.9621C8.99254 47.7531 11.3143 50.1121 14.2946 50.1121C17.2748 50.1121 19.5966 47.7531 19.5966 44.9621Z" fill="#000080"/>
</g>
<defs>
<clipPath id="clip0_52_4860">
<rect width="56.3801" height="56.1938" fill="white"/>
</clipPath>
</defs>
</svg>
